%TF.GenerationSoftware,KiCad,Pcbnew,8.0.4*%
%TF.CreationDate,2024-08-20T15:20:12-04:00*%
%TF.ProjectId,gameconsole,67616d65-636f-46e7-936f-6c652e6b6963,rev?*%
%TF.SameCoordinates,Original*%
%TF.FileFunction,Soldermask,Top*%
%TF.FilePolarity,Negative*%
%FSLAX46Y46*%
G04 Gerber Fmt 4.6, Leading zero omitted, Abs format (unit mm)*
G04 Created by KiCad (PCBNEW 8.0.4) date 2024-08-20 15:20:12*
%MOMM*%
%LPD*%
G01*
G04 APERTURE LIST*
G04 Aperture macros list*
%AMRoundRect*
0 Rectangle with rounded corners*
0 $1 Rounding radius*
0 $2 $3 $4 $5 $6 $7 $8 $9 X,Y pos of 4 corners*
0 Add a 4 corners polygon primitive as box body*
4,1,4,$2,$3,$4,$5,$6,$7,$8,$9,$2,$3,0*
0 Add four circle primitives for the rounded corners*
1,1,$1+$1,$2,$3*
1,1,$1+$1,$4,$5*
1,1,$1+$1,$6,$7*
1,1,$1+$1,$8,$9*
0 Add four rect primitives between the rounded corners*
20,1,$1+$1,$2,$3,$4,$5,0*
20,1,$1+$1,$4,$5,$6,$7,0*
20,1,$1+$1,$6,$7,$8,$9,0*
20,1,$1+$1,$8,$9,$2,$3,0*%
G04 Aperture macros list end*
%ADD10C,1.524000*%
%ADD11C,1.702000*%
%ADD12RoundRect,0.102000X-0.749000X-0.749000X0.749000X-0.749000X0.749000X0.749000X-0.749000X0.749000X0*%
%ADD13RoundRect,0.102000X-0.754000X-0.754000X0.754000X-0.754000X0.754000X0.754000X-0.754000X0.754000X0*%
%ADD14C,1.712000*%
%ADD15O,1.700000X1.700000*%
%ADD16R,3.500000X1.700000*%
%ADD17R,1.700000X1.700000*%
G04 APERTURE END LIST*
D10*
%TO.C,U*%
X101575000Y-76775000D03*
X101575000Y-74275000D03*
X101575000Y-71775000D03*
X101575000Y-69275000D03*
X101575000Y-66775000D03*
X101575000Y-64275000D03*
X101575000Y-79275000D03*
D11*
X155575000Y-83275000D03*
X155575000Y-72775000D03*
X138075000Y-83275000D03*
X126075000Y-83275000D03*
X126075000Y-72775000D03*
X114075000Y-83275000D03*
X149075000Y-83275000D03*
X149075000Y-72775000D03*
X131575000Y-83275000D03*
X119575000Y-83275000D03*
X119575000Y-72775000D03*
X107575000Y-83275000D03*
X155575000Y-78775000D03*
X155575000Y-68275000D03*
X138075000Y-78775000D03*
X126075000Y-78775000D03*
X126075000Y-68275000D03*
X114075000Y-78775000D03*
D12*
X149075000Y-78775000D03*
X149075000Y-68275000D03*
X131575000Y-78775000D03*
X119575000Y-78775000D03*
X119575000Y-68275000D03*
X107575000Y-78775000D03*
%TD*%
D13*
%TO.C,OLED1*%
X125500000Y-94700000D03*
D14*
X128040000Y-94700000D03*
X130580000Y-94700000D03*
X133120000Y-94700000D03*
%TD*%
D10*
%TO.C,CONTROLLER1*%
X101610000Y-123700000D03*
X101610000Y-126200000D03*
X101610000Y-128700000D03*
X101610000Y-131200000D03*
X101610000Y-133700000D03*
X101610000Y-136200000D03*
X101610000Y-138700000D03*
%TD*%
D15*
%TO.C,PICO1*%
X120720000Y-98460000D03*
D16*
X119820000Y-98460000D03*
D15*
X120720000Y-101000000D03*
D16*
X119820000Y-101000000D03*
D17*
X120720000Y-103540000D03*
D16*
X119820000Y-103540000D03*
D15*
X120720000Y-106080000D03*
D16*
X119820000Y-106080000D03*
D15*
X120720000Y-108620000D03*
D16*
X119820000Y-108620000D03*
D15*
X120720000Y-111160000D03*
D16*
X119820000Y-111160000D03*
D15*
X120720000Y-113700000D03*
D16*
X119820000Y-113700000D03*
D17*
X120720000Y-116240000D03*
D16*
X119820000Y-116240000D03*
D15*
X120720000Y-118780000D03*
D16*
X119820000Y-118780000D03*
D15*
X120720000Y-121320000D03*
D16*
X119820000Y-121320000D03*
D15*
X120720000Y-123860000D03*
D16*
X119820000Y-123860000D03*
D15*
X120720000Y-126400000D03*
D16*
X119820000Y-126400000D03*
D17*
X120720000Y-128940000D03*
D16*
X119820000Y-128940000D03*
D15*
X120720000Y-131480000D03*
D16*
X119820000Y-131480000D03*
D15*
X120720000Y-134020000D03*
D16*
X119820000Y-134020000D03*
D15*
X120720000Y-136560000D03*
D16*
X119820000Y-136560000D03*
D15*
X120720000Y-139100000D03*
D16*
X119820000Y-139100000D03*
D17*
X120720000Y-141640000D03*
D16*
X119820000Y-141640000D03*
D15*
X120720000Y-144180000D03*
D16*
X119820000Y-144180000D03*
D15*
X120720000Y-146720000D03*
D16*
X119820000Y-146720000D03*
D15*
X138500000Y-146720000D03*
D16*
X139400000Y-146720000D03*
D15*
X138500000Y-144180000D03*
D16*
X139400000Y-144180000D03*
D17*
X138500000Y-141640000D03*
D16*
X139400000Y-141640000D03*
D15*
X138500000Y-139100000D03*
D16*
X139400000Y-139100000D03*
D15*
X138500000Y-136560000D03*
D16*
X139400000Y-136560000D03*
D15*
X138500000Y-134020000D03*
D16*
X139400000Y-134020000D03*
D15*
X138500000Y-131480000D03*
D16*
X139400000Y-131480000D03*
D17*
X138500000Y-128940000D03*
D16*
X139400000Y-128940000D03*
D15*
X138500000Y-126400000D03*
D16*
X139400000Y-126400000D03*
D15*
X138500000Y-123860000D03*
D16*
X139400000Y-123860000D03*
D15*
X138500000Y-121320000D03*
D16*
X139400000Y-121320000D03*
D15*
X138500000Y-118780000D03*
D16*
X139400000Y-118780000D03*
D17*
X138500000Y-116240000D03*
D16*
X139400000Y-116240000D03*
D15*
X138500000Y-113700000D03*
D16*
X139400000Y-113700000D03*
D15*
X138500000Y-111160000D03*
D16*
X139400000Y-111160000D03*
D15*
X138500000Y-108620000D03*
D16*
X139400000Y-108620000D03*
D15*
X138500000Y-106080000D03*
D16*
X139400000Y-106080000D03*
D17*
X138500000Y-103540000D03*
D16*
X139400000Y-103540000D03*
D15*
X138500000Y-101000000D03*
D16*
X139400000Y-101000000D03*
D15*
X138500000Y-98460000D03*
D16*
X139400000Y-98460000D03*
%TD*%
D10*
%TO.C,SDCARD1*%
X111350000Y-105950000D03*
X111350000Y-108450000D03*
X111350000Y-110950000D03*
X111350000Y-113450000D03*
X111350000Y-115950000D03*
X111350000Y-118450000D03*
%TD*%
M02*
