%TF.GenerationSoftware,KiCad,Pcbnew,8.0.4*%
%TF.CreationDate,2024-08-20T15:20:12-04:00*%
%TF.ProjectId,gameconsole,67616d65-636f-46e7-936f-6c652e6b6963,rev?*%
%TF.SameCoordinates,Original*%
%TF.FileFunction,Legend,Bot*%
%TF.FilePolarity,Positive*%
%FSLAX46Y46*%
G04 Gerber Fmt 4.6, Leading zero omitted, Abs format (unit mm)*
G04 Created by KiCad (PCBNEW 8.0.4) date 2024-08-20 15:20:12*
%MOMM*%
%LPD*%
G01*
G04 APERTURE LIST*
%ADD10C,0.100000*%
G04 APERTURE END LIST*
D10*
X109409800Y-110259524D02*
X109457419Y-110402381D01*
X109457419Y-110402381D02*
X109457419Y-110640476D01*
X109457419Y-110640476D02*
X109409800Y-110735714D01*
X109409800Y-110735714D02*
X109362180Y-110783333D01*
X109362180Y-110783333D02*
X109266942Y-110830952D01*
X109266942Y-110830952D02*
X109171704Y-110830952D01*
X109171704Y-110830952D02*
X109076466Y-110783333D01*
X109076466Y-110783333D02*
X109028847Y-110735714D01*
X109028847Y-110735714D02*
X108981228Y-110640476D01*
X108981228Y-110640476D02*
X108933609Y-110450000D01*
X108933609Y-110450000D02*
X108885990Y-110354762D01*
X108885990Y-110354762D02*
X108838371Y-110307143D01*
X108838371Y-110307143D02*
X108743133Y-110259524D01*
X108743133Y-110259524D02*
X108647895Y-110259524D01*
X108647895Y-110259524D02*
X108552657Y-110307143D01*
X108552657Y-110307143D02*
X108505038Y-110354762D01*
X108505038Y-110354762D02*
X108457419Y-110450000D01*
X108457419Y-110450000D02*
X108457419Y-110688095D01*
X108457419Y-110688095D02*
X108505038Y-110830952D01*
X109457419Y-111259524D02*
X108457419Y-111259524D01*
X108457419Y-111259524D02*
X108457419Y-111497619D01*
X108457419Y-111497619D02*
X108505038Y-111640476D01*
X108505038Y-111640476D02*
X108600276Y-111735714D01*
X108600276Y-111735714D02*
X108695514Y-111783333D01*
X108695514Y-111783333D02*
X108885990Y-111830952D01*
X108885990Y-111830952D02*
X109028847Y-111830952D01*
X109028847Y-111830952D02*
X109219323Y-111783333D01*
X109219323Y-111783333D02*
X109314561Y-111735714D01*
X109314561Y-111735714D02*
X109409800Y-111640476D01*
X109409800Y-111640476D02*
X109457419Y-111497619D01*
X109457419Y-111497619D02*
X109457419Y-111259524D01*
X109362180Y-112830952D02*
X109409800Y-112783333D01*
X109409800Y-112783333D02*
X109457419Y-112640476D01*
X109457419Y-112640476D02*
X109457419Y-112545238D01*
X109457419Y-112545238D02*
X109409800Y-112402381D01*
X109409800Y-112402381D02*
X109314561Y-112307143D01*
X109314561Y-112307143D02*
X109219323Y-112259524D01*
X109219323Y-112259524D02*
X109028847Y-112211905D01*
X109028847Y-112211905D02*
X108885990Y-112211905D01*
X108885990Y-112211905D02*
X108695514Y-112259524D01*
X108695514Y-112259524D02*
X108600276Y-112307143D01*
X108600276Y-112307143D02*
X108505038Y-112402381D01*
X108505038Y-112402381D02*
X108457419Y-112545238D01*
X108457419Y-112545238D02*
X108457419Y-112640476D01*
X108457419Y-112640476D02*
X108505038Y-112783333D01*
X108505038Y-112783333D02*
X108552657Y-112830952D01*
X109171704Y-113211905D02*
X109171704Y-113688095D01*
X109457419Y-113116667D02*
X108457419Y-113450000D01*
X108457419Y-113450000D02*
X109457419Y-113783333D01*
X109457419Y-114688095D02*
X108981228Y-114354762D01*
X109457419Y-114116667D02*
X108457419Y-114116667D01*
X108457419Y-114116667D02*
X108457419Y-114497619D01*
X108457419Y-114497619D02*
X108505038Y-114592857D01*
X108505038Y-114592857D02*
X108552657Y-114640476D01*
X108552657Y-114640476D02*
X108647895Y-114688095D01*
X108647895Y-114688095D02*
X108790752Y-114688095D01*
X108790752Y-114688095D02*
X108885990Y-114640476D01*
X108885990Y-114640476D02*
X108933609Y-114592857D01*
X108933609Y-114592857D02*
X108981228Y-114497619D01*
X108981228Y-114497619D02*
X108981228Y-114116667D01*
X109457419Y-115116667D02*
X108457419Y-115116667D01*
X108457419Y-115116667D02*
X108457419Y-115354762D01*
X108457419Y-115354762D02*
X108505038Y-115497619D01*
X108505038Y-115497619D02*
X108600276Y-115592857D01*
X108600276Y-115592857D02*
X108695514Y-115640476D01*
X108695514Y-115640476D02*
X108885990Y-115688095D01*
X108885990Y-115688095D02*
X109028847Y-115688095D01*
X109028847Y-115688095D02*
X109219323Y-115640476D01*
X109219323Y-115640476D02*
X109314561Y-115592857D01*
X109314561Y-115592857D02*
X109409800Y-115497619D01*
X109409800Y-115497619D02*
X109457419Y-115354762D01*
X109457419Y-115354762D02*
X109457419Y-115116667D01*
X109457419Y-116640476D02*
X109457419Y-116069048D01*
X109457419Y-116354762D02*
X108457419Y-116354762D01*
X108457419Y-116354762D02*
X108600276Y-116259524D01*
X108600276Y-116259524D02*
X108695514Y-116164286D01*
X108695514Y-116164286D02*
X108743133Y-116069048D01*
%TO.C,SDCARD1*%
X150100000Y-124200000D02*
X108100000Y-124200000D01*
X108100000Y-100200000D01*
X150100000Y-100200000D01*
X150100000Y-124200000D01*
%TD*%
M02*
