M48
; DRILL file {KiCad 8.0.4} date 2024-08-20T18:04:45-0400
; FORMAT={-:-/ absolute / inch / decimal}
; #@! TF.CreationDate,2024-08-20T18:04:45-04:00
; #@! TF.GenerationSoftware,Kicad,Pcbnew,8.0.4
; #@! TF.FileFunction,Plated,1,2,PTH
FMAT,2
INCH
; #@! TA.AperFunction,Plated,PTH,ComponentDrill
T1C0.0390
; #@! TA.AperFunction,Plated,PTH,ComponentDrill
T2C0.0394
; #@! TA.AperFunction,Plated,PTH,ComponentDrill
T3C0.0402
%
G90
G05
T1
X4.2352Y-3.1014
X4.2352Y-3.2785
X4.4911Y-3.1014
X4.4911Y-3.2785
X4.7077Y-2.688
X4.7077Y-2.8652
X4.7077Y-3.1014
X4.7077Y-3.2785
X4.9636Y-2.688
X4.9636Y-2.8652
X4.9636Y-3.1014
X4.9636Y-3.2785
X5.1801Y-3.1014
X5.1801Y-3.2785
X5.436Y-3.1014
X5.436Y-3.2785
X5.8691Y-2.688
X5.8691Y-2.8652
X5.8691Y-3.1014
X5.8691Y-3.2785
X6.125Y-2.688
X6.125Y-2.8652
X6.125Y-3.1014
X6.125Y-3.2785
T2
X3.999Y-2.5305
X3.999Y-2.6289
X3.999Y-2.7274
X3.999Y-2.8258
X3.999Y-2.9242
X3.999Y-3.0226
X3.999Y-3.1211
X4.0004Y-4.8701
X4.0004Y-4.9685
X4.0004Y-5.0669
X4.0004Y-5.1654
X4.0004Y-5.2638
X4.0004Y-5.3622
X4.0004Y-5.4606
X4.3839Y-4.1713
X4.3839Y-4.2697
X4.3839Y-4.3681
X4.3839Y-4.4665
X4.3839Y-4.565
X4.3839Y-4.6634
X4.9409Y-3.7283
X5.0409Y-3.7283
X5.1409Y-3.7283
X5.2409Y-3.7283
T3
X4.7528Y-3.8764
X4.7528Y-3.9764
X4.7528Y-4.0764
X4.7528Y-4.1764
X4.7528Y-4.2764
X4.7528Y-4.3764
X4.7528Y-4.4764
X4.7528Y-4.5764
X4.7528Y-4.6764
X4.7528Y-4.7764
X4.7528Y-4.8764
X4.7528Y-4.9764
X4.7528Y-5.0764
X4.7528Y-5.1764
X4.7528Y-5.2764
X4.7528Y-5.3764
X4.7528Y-5.4764
X4.7528Y-5.5764
X4.7528Y-5.6764
X4.7528Y-5.7764
X5.4528Y-3.8764
X5.4528Y-3.9764
X5.4528Y-4.0764
X5.4528Y-4.1764
X5.4528Y-4.2764
X5.4528Y-4.3764
X5.4528Y-4.4764
X5.4528Y-4.5764
X5.4528Y-4.6764
X5.4528Y-4.7764
X5.4528Y-4.8764
X5.4528Y-4.9764
X5.4528Y-5.0764
X5.4528Y-5.1764
X5.4528Y-5.2764
X5.4528Y-5.3764
X5.4528Y-5.4764
X5.4528Y-5.5764
X5.4528Y-5.6764
X5.4528Y-5.7764
M30
